<?xml version="1.0" encoding="UTF-8"?>
<svg width="689" height="689" version="1.1" xmlns="http://www.w3.org/2000/svg" xmlns:xlink="http://www.w3.org/1999/xlink">
 <g fill="none" stroke="#38f43d" stroke-width="8" stroke-linecap="round">
  <path id="a" d="m300.29 207.74c1.3616-2.2602 2.4502-8.4564 4.461-14.735 2.0107-6.2786 4.9422-12.633 8.3731-19.16 3.431-6.5267 7.3579-13.22 13.074-19.928 5.7163-6.7082 13.219-13.427 19.948-18.332 6.7283-4.905 12.801-8.0577 19.477-11.447 6.6762-3.3894 14.013-7.045 22.889-10.241 8.8763-3.196 19.287-5.9285 32.72-8.4361 13.432-2.5076 29.879-4.7868 47.228-3.7924 17.349 0.99433 35.593 5.2618 51.311 10.69 15.719 5.4278 28.908 12.015 42.158 20.705 13.25 8.6904 26.57 19.492 42.094 36.96 15.523 17.468 33.189 41.517 46.215 65.213 13.026 23.696 21.379 46.991 25.589 71.908 4.21 24.917 4.2789 51.71 0.56968 73.826-3.7092 22.117-11.197 39.684-18.908 55.601-7.711 15.919-15.646 30.191-26.569 46.128-10.924 15.938-24.839 33.543-38.899 47.483-14.06 13.94-28.268 24.216-42.821 32.649-14.553 8.4327-29.453 15.023-47.766 19.001-18.313 3.9779-39.756 5.3274-60.373 3.5492-20.617-1.7782-40.267-6.6914-55.511-11.869-15.244-5.178-26.084-10.619-36.964-18.711-10.88-8.0919-21.8-18.835-28.872-28.56-7.0708-9.7254-10.295-18.434-12.754-26.291-2.4596-7.8569-4.1569-14.863-5.9569-17.668"/>
  <path d="M 685,344.5 A 340.5,340.5 0 0 1 344.5,685 340.5,340.5 0 0 1 4,344.5 340.5,340.5 0 0 1 344.5,4 340.5,340.5 0 0 1 685,344.5 Z"/>
  <g>
   <use transform="rotate(-36 344.5 344.5)" xlink:href="#a"/>
   <use transform="rotate(-72 344.5 344.5)" xlink:href="#a"/>
   <use transform="rotate(252 344.5 344.5)" xlink:href="#a"/>
   <use transform="rotate(216 344.5 344.5)" xlink:href="#a"/>
   <use transform="rotate(180 344.5 344.5)" xlink:href="#a"/>
   <use transform="rotate(144 344.5 344.5)" xlink:href="#a"/>
   <use transform="rotate(108 344.5 344.5)" xlink:href="#a"/>
   <use transform="rotate(72 344.5 344.5)" xlink:href="#a"/>
   <use transform="rotate(36 344.5 344.5)" xlink:href="#a"/>
  </g>
 </g>
</svg>
